<?xml version="1.0" standalone="no"?>
<!DOCTYPE svg PUBLIC "-//W3C//DTD SVG 20010904//EN"
 "http://www.w3.org/TR/2001/REC-SVG-20010904/DTD/svg10.dtd">
<svg version="1.0" xmlns="http://www.w3.org/2000/svg"
 width="70.000000pt" height="70.000000pt" viewBox="0 0 70.000000 70.000000"
 preserveAspectRatio="xMidYMid meet">
<metadata>
Created by potrace 1.11, written by Peter Selinger 2001-2013
</metadata>
<g transform="translate(0.000000,70.000000) scale(0.100000,-0.100000)"
fill="#000000" stroke="none">
<path d="M222 658 c-73 -28 -153 -109 -181 -183 -48 -127 -19 -267 74 -360 67
-67 137 -95 235 -95 98 0 168 28 235 95 93 93 122 233 74 360 -28 76 -108 156
-184 184 -74 28 -180 28 -253 -1z m148 -108 c0 -25 4 -30 25 -30 14 0 25 -4
25 -10 0 -5 -11 -10 -25 -10 -24 0 -25 -2 -25 -70 0 -56 -3 -70 -15 -70 -12 0
-15 14 -15 70 0 68 -1 70 -25 70 -14 0 -25 5 -25 10 0 6 11 10 25 10 21 0 25
5 25 30 0 20 5 30 15 30 10 0 15 -10 15 -30z m-179 -142 c0 -10 2 -10 6 0 2 6
11 12 19 12 8 0 14 -6 15 -12 0 -10 2 -10 6 0 7 17 33 15 33 -3 0 -12 -13 -15
-55 -15 -42 0 -55 3 -55 15 0 18 30 20 31 3z m273 0 c5 -10 7 -10 12 0 3 6 12
12 20 12 8 0 14 -6 15 -12 0 -10 2 -10 6 0 7 17 33 15 33 -3 0 -12 -13 -15
-60 -15 -47 0 -60 3 -60 15 0 18 26 20 34 3z m-194 -83 c0 -48 22 -72 42 -44
7 11 11 11 15 2 6 -17 40 -17 46 0 4 9 8 9 15 -2 20 -28 42 -4 42 44 l0 45 60
0 60 0 0 -97 c0 -54 3 -108 6 -120 6 -22 4 -23 -70 -23 l-76 0 0 37 c0 63 -50
94 -92 56 -11 -10 -18 -30 -18 -55 l0 -38 -76 0 c-74 0 -76 1 -70 23 3 12 6
66 6 120 l0 97 55 0 55 0 0 -45z"/>
<path d="M207 354 c-4 -4 -7 -25 -7 -46 0 -32 3 -38 21 -38 18 0 20 5 17 42
-3 39 -16 57 -31 42z"/>
<path d="M487 354 c-4 -4 -7 -25 -7 -46 0 -32 3 -38 21 -38 18 0 20 5 17 42
-3 39 -16 57 -31 42z"/>
</g>
</svg>
